REM DIRINDEX 1\2\5,1\2\6,1\2\7,1\2\8,1\3\9,1\3\10,1\3\11,1\4\12,1\4\13,1\4\14,1\4\15,1\4\16
REM DIRNAME cjc034,folder01,folder02,folder03,folder04,folder05,folder06,folder07,folder08,folder09,folder10,folder11,folder12,folder13,folder14,folder15
TITLE ""
FILE "1200_sec01_0049_0057.mp3" MP3
  TRACK 01 AUDIO
    TITLE "0:"
    INDEX 01 00:00:00
  TRACK 02 AUDIO
    TITLE "12:cjc034_03820"
    INDEX 01 00:00:25
  TRACK 03 AUDIO
    TITLE "0:"
    INDEX 01 00:01:40
  TRACK 04 AUDIO
    TITLE "13:cjc034_03821"
    INDEX 01 00:01:73
  TRACK 05 AUDIO
    TITLE "0:"
    INDEX 01 00:03:21
  TRACK 06 AUDIO
    TITLE "14:cjc034_03822"
    INDEX 01 00:03:64
  TRACK 07 AUDIO
    TITLE "0:"
    INDEX 01 00:04:74
  TRACK 08 AUDIO
    TITLE "15:cjc034_03823"
    INDEX 01 00:05:36
  TRACK 09 AUDIO
    TITLE "0:"
    INDEX 01 00:08:28
  TRACK 10 AUDIO
    TITLE "12:cjc034_03824"
    INDEX 01 00:09:65
  TRACK 11 AUDIO
    TITLE "0:"
    INDEX 01 00:11:07
  TRACK 12 AUDIO
    TITLE "13:cjc034_03825"
    INDEX 01 00:11:40
  TRACK 13 AUDIO
    TITLE "0:"
    INDEX 01 00:12:50
  TRACK 14 AUDIO
    TITLE "14:cjc034_03826"
    INDEX 01 00:13:10
  TRACK 15 AUDIO
    TITLE "0:"
    INDEX 01 00:14:27
  TRACK 16 AUDIO
    TITLE "15:cjc034_03827"
    INDEX 01 00:14:60
  TRACK 17 AUDIO
    TITLE "0:"
    INDEX 01 00:18:19
  TRACK 18 AUDIO
    TITLE "12:cjc034_03828"
    INDEX 01 00:19:54
  TRACK 19 AUDIO
    TITLE "0:"
    INDEX 01 00:20:59
  TRACK 20 AUDIO
    TITLE "13:cjc034_03829"
    INDEX 01 00:21:15
  TRACK 21 AUDIO
    TITLE "0:"
    INDEX 01 00:23:32
  TRACK 22 AUDIO
    TITLE "14:cjc034_03830"
    INDEX 01 00:23:63
  TRACK 23 AUDIO
    TITLE "0:"
    INDEX 01 00:24:69
  TRACK 24 AUDIO
    TITLE "15:cjc034_03831"
    INDEX 01 00:25:27
  TRACK 25 AUDIO
    TITLE "0:"
    INDEX 01 00:28:45
  TRACK 26 AUDIO
    TITLE "12:cjc034_03832"
    INDEX 01 00:30:05
  TRACK 27 AUDIO
    TITLE "0:"
    INDEX 01 00:31:18
  TRACK 28 AUDIO
    TITLE "13:cjc034_03833"
    INDEX 01 00:31:53
  TRACK 29 AUDIO
    TITLE "0:"
    INDEX 01 00:34:06
  TRACK 30 AUDIO
    TITLE "14:cjc034_03834"
    INDEX 01 00:34:43
  TRACK 31 AUDIO
    TITLE "0:"
    INDEX 01 00:35:57
  TRACK 32 AUDIO
    TITLE "15:cjc034_03835"
    INDEX 01 00:36:19
  TRACK 33 AUDIO
    TITLE "0:"
    INDEX 01 00:40:07
  TRACK 34 AUDIO
    TITLE "12:cjc034_03836"
    INDEX 01 00:41:40
  TRACK 35 AUDIO
    TITLE "0:"
    INDEX 01 00:42:51
  TRACK 36 AUDIO
    TITLE "13:cjc034_03837"
    INDEX 01 00:43:09
  TRACK 37 AUDIO
    TITLE "0:"
    INDEX 01 00:45:37
  TRACK 38 AUDIO
    TITLE "14:cjc034_03838"
    INDEX 01 00:45:69
  TRACK 39 AUDIO
    TITLE "0:"
    INDEX 01 00:47:07
  TRACK 40 AUDIO
    TITLE "15:cjc034_03839"
    INDEX 01 00:47:40
  TRACK 41 AUDIO
    TITLE "0:"
    INDEX 01 00:51:15
  TRACK 42 AUDIO
    TITLE "12:cjc034_03840"
    INDEX 01 00:52:49
  TRACK 43 AUDIO
    TITLE "0:"
    INDEX 01 00:53:66
  TRACK 44 AUDIO
    TITLE "13:cjc034_03841"
    INDEX 01 00:54:25
  TRACK 45 AUDIO
    TITLE "0:"
    INDEX 01 00:56:57
  TRACK 46 AUDIO
    TITLE "14:cjc034_03842"
    INDEX 01 00:57:19
  TRACK 47 AUDIO
    TITLE "0:"
    INDEX 01 00:58:36
  TRACK 48 AUDIO
    TITLE "15:cjc034_03843"
    INDEX 01 00:58:69
  TRACK 49 AUDIO
    TITLE "0:"
    INDEX 01 01:04:13
  TRACK 50 AUDIO
    TITLE "12:cjc034_03844"
    INDEX 01 01:05:46
  TRACK 51 AUDIO
    TITLE "0:"
    INDEX 01 01:06:51
  TRACK 52 AUDIO
    TITLE "13:cjc034_03845"
    INDEX 01 01:07:10
  TRACK 53 AUDIO
    TITLE "0:"
    INDEX 01 01:08:07
  TRACK 54 AUDIO
    TITLE "14:cjc034_03846"
    INDEX 01 01:08:40
  TRACK 55 AUDIO
    TITLE "0:"
    INDEX 01 01:09:44
  TRACK 56 AUDIO
    TITLE "15:cjc034_03847"
    INDEX 01 01:10:02
  TRACK 57 AUDIO
    TITLE "0:"
    INDEX 01 01:13:28
  TRACK 58 AUDIO
    TITLE "12:cjc034_03848"
    INDEX 01 01:14:63
  TRACK 59 AUDIO
    TITLE "0:"
    INDEX 01 01:15:64
  TRACK 60 AUDIO
    TITLE "13:cjc034_03849"
    INDEX 01 01:16:30
  TRACK 61 AUDIO
    TITLE "0:"
    INDEX 01 01:17:22
  TRACK 62 AUDIO
    TITLE "14:cjc034_03850"
    INDEX 01 01:17:55
  TRACK 63 AUDIO
    TITLE "0:"
    INDEX 01 01:18:58
  TRACK 64 AUDIO
    TITLE "15:cjc034_03851"
    INDEX 01 01:19:23
  TRACK 65 AUDIO
    TITLE "0:"
    INDEX 01 01:22:23
  TRACK 66 AUDIO
    TITLE "12:cjc034_03852"
    INDEX 01 01:23:60
  TRACK 67 AUDIO
    TITLE "0:"
    INDEX 01 01:25:09
  TRACK 68 AUDIO
    TITLE "13:cjc034_03853"
    INDEX 01 01:25:41
  TRACK 69 AUDIO
    TITLE "0:"
    INDEX 01 01:26:52
  TRACK 70 AUDIO
    TITLE "14:cjc034_03854"
    INDEX 01 01:27:12
  TRACK 71 AUDIO
    TITLE "0:"
    INDEX 01 01:28:37
  TRACK 72 AUDIO
    TITLE "15:cjc034_03855"
    INDEX 01 01:28:71
  TRACK 73 AUDIO
    TITLE "0:"
    INDEX 01 01:31:73
